<svg xmlns="http://www.w3.org/2000/svg" viewBox="0 0 320 114">
<style type="text/css">
.st0{fill:#231F20}
.st1{fill:none;stroke:rgba(0,0,0,.2);stroke-width:3;stroke-linecap:round;stroke-miterlimit:10;stroke-dasharray:20;stroke-dashoffset:-100;animation:move 2s linear infinite}
.st2{fill:#EC2024}
.st3{opacity:.3;fill:#FFFFFF;transform-origin:center;transform-box:fill-box}
@keyframes move{100%{stroke-dashoffset:300}}
</style>
<path class="st0" d="M96.442,45.409c-14.043,0-25.427,11.384-25.427,25.427s11.384,25.427,25.427,25.427c14.043,0,25.427-11.384,25.427-25.427S110.484,45.409,96.442,45.409z M202.708,45.409c-14.043,0-25.427,11.384-25.427,25.427s11.384,25.427,25.427,25.427s25.427-11.384,25.427-25.427S216.751,45.409,202.708,45.409z"/>
<line class="st1" x1="1.5" y1="98.4" x2="318.5" y2="98.4"/>
<path class="st2" d="M121.868,59.538h20.642v25.191h14.129V59.538h20.642V45.409h-55.413V59.538z M71.633,42.963h47.788V29.327H95.821l1.413-2.447h22.188V14.859h-15.248l1.413-2.447h13.835V-0.442H96.693L71.633,42.963z M40.31,66.096L20.209,31.28H0v14.129h12.052v39.32h14.129V69.882l8.572,14.848h11.113l8.572-14.848v14.848h14.129v-39.32H52.253L40.31,66.096z M179.728-0.442v43.405h14.129V32.888h12.106l5.857,10.074h16.315l-25.06-43.405H179.728z M177.282,16.223c0-9.204-7.461-16.665-16.665-16.665h-38.748v43.405h14.129V32.888h19.113l5.857,10.074h16.315l-7.429-12.868C174.331,27.107,177.282,22.01,177.282,16.223z M271.981,60.469c0-8.317-6.742-15.06-15.06-15.06h-12.211h-14.129v30.119v9.201h14.129v-9.201h5.643l5.312,9.201h16.315l-6.755-11.699C269.296,70.334,271.981,65.716,271.981,60.469z M320,63.213V52.748l-45.573-7.339v22.339l31.443,5.923v1.563l-31.443-0.924v10.419H320V67.634l-31.443-5.923v-2.288L320,63.213z"><animateTransform attributeName="transform" type="translate" dur="2s" values="0,0; 0,2; 0,0" repeatCount="indefinite"/></path>
<path class="st0" d="M68.818,114c-0.977,0-1.792-0.332-2.442-0.995c-0.65-0.663-0.976-1.48-0.976-2.451c0-0.965,0.327-1.78,0.981-2.447c0.654-0.667,1.485-1,2.494-1c0.577,0,1.063,0.094,1.457,0.281c0.393,0.188,0.768,0.455,1.123,0.805l-0.876,1.009c-0.286-0.26-0.554-0.449-0.805-0.566c-0.251-0.118-0.554-0.176-0.909-0.176c-0.559,0-1.02,0.202-1.385,0.605c-0.365,0.403-0.548,0.9-0.548,1.49c0,0.584,0.183,1.079,0.548,1.485c0.365,0.407,0.826,0.61,1.385,0.61c0.356,0,0.663-0.063,0.924-0.191c0.26-0.127,0.536-0.324,0.828-0.59l0.933,0.999c-0.362,0.387-0.754,0.673-1.176,0.856C69.952,113.908,69.433,114,68.818,114z"/>
<path class="st0" d="M86.173,113.886l2.856-6.712h1.352l2.856,6.712h-1.533l-0.609-1.495h-2.818l-0.609,1.495H86.173z M88.801,111.096h1.771l-0.885-2.161L88.801,111.096z"/>
<path class="st0" d="M108.289,113.886v-6.664h3.046c0.844,0,1.491,0.225,1.942,0.676c0.381,0.381,0.571,0.895,0.571,1.543c0,1.022-0.476,1.711-1.428,2.066l1.628,2.38h-1.714l-1.447-2.133h-1.133v2.133H108.289z M109.755,110.458h1.485c0.355,0,0.632-0.087,0.828-0.262c0.196-0.175,0.295-0.408,0.295-0.7c0-0.311-0.101-0.548-0.304-0.709c-0.203-0.162-0.485-0.243-0.848-0.243h-1.456V110.458z"/>
<path class="st0" d="M146.076,113.886v-6.664h3.046c0.844,0,1.491,0.225,1.943,0.676c0.38,0.381,0.571,0.895,0.571,1.543c0,1.022-0.477,1.711-1.428,2.066l1.629,2.38h-1.714l-1.447-2.133h-1.133v2.133H146.076z M147.542,110.458h1.485c0.356,0,0.632-0.087,0.829-0.262c0.197-0.175,0.295-0.408,0.295-0.7c0-0.311-0.101-0.548-0.304-0.709c-0.203-0.162-0.485-0.243-0.848-0.243h-1.456V110.458z"/>
<path class="st0" d="M166.983,113.886v-6.664h5.027v1.305h-3.57v1.352h3.142v1.305h-3.142v1.399h3.618v1.305H166.983z"/>
<path class="st0" d="M187.385,113.886v-6.664h1.352l3.123,4.104v-4.104h1.447v6.664h-1.247l-3.227-4.237v4.237H187.385z"/>
<path class="st0" d="M210.482,113.886v-5.312h-2.028v-1.352h5.522v1.352h-2.028v5.312H210.482z"/>
<path class="st0" d="M227.695,113.886l2.856-6.712h1.352l2.856,6.712h-1.533l-0.609-1.495h-2.818l-0.609,1.495H227.695z M230.323,111.096h1.771l-0.886-2.161L230.323,111.096z"/>
<path class="st0" d="M249.811,113.886v-6.664h1.466v5.331h3.323v1.333H249.811z"/>
<path class="st3" d="M94.707,65.093v-10.17c-3.12,0.336-5.969,1.57-8.289,3.436l7.19,7.189C93.955,65.362,94.323,65.209,94.707,65.093zM91.154,68.002l-7.19-7.19c-1.866,2.32-3.099,5.169-3.436,8.289h10.17C90.815,68.717,90.968,68.349,91.154,68.002zM106.465,58.359c-2.32-1.866-5.169-3.099-8.289-3.436v10.17c0.384,0.116,0.752,0.269,1.1,0.456L106.465,58.359zM102.184,69.101h10.17c-0.336-3.12-1.57-5.969-3.436-8.289l-7.19,7.189C101.915,68.349,102.068,68.717,102.184,69.101zM90.699,72.571h-10.17c0.336,3.12,1.57,5.969,3.436,8.289l7.19-7.189C90.968,73.323,90.815,72.955,90.699,72.571zM101.729,73.67l7.19,7.189c1.866-2.32,3.099-5.169,3.436-8.289h-10.17C102.068,72.955,101.915,73.323,101.729,73.67zM98.176,76.579v10.17c3.12-0.336,5.969-1.57,8.289-3.436l-7.19-7.189C98.928,76.31,98.56,76.463,98.176,76.579zM86.418,83.313c2.32,1.866,5.169,3.099,8.289,3.436v-10.17c-0.384-0.116-0.752-0.269-1.1-0.456L86.418,83.313zM99.602,70.836c0-1.745-1.415-3.16-3.161-3.16c-1.745,0-3.16,1.415-3.16,3.16s1.415,3.16,3.16,3.16C98.187,73.996,99.602,72.581,99.602,70.836z"><animateTransform attributeName="transform" type="rotate" from="0" to="360" dur="1s" repeatCount="indefinite"/></path>
<path class="st3" d="M200.974,65.093v-10.17c-3.12,0.336-5.969,1.57-8.289,3.436l7.19,7.189C200.221,65.362,200.589,65.209,200.974,65.093zM197.421,68.002l-7.19-7.19c-1.866,2.32-3.099,5.169-3.436,8.289h10.17C197.081,68.717,197.234,68.349,197.421,68.002zM212.732,58.359c-2.32-1.866-5.169-3.099-8.289-3.436v10.17c0.384,0.116,0.752,0.269,1.1,0.456L212.732,58.359zM208.451,69.101h10.17c-0.336-3.12-1.57-5.969-3.436-8.289l-7.19,7.189C208.182,68.349,208.335,68.717,208.451,69.101zM196.966,72.571h-10.17c0.336,3.12,1.57,5.969,3.436,8.289l7.19-7.189C197.234,73.323,197.081,72.955,196.966,72.571zM207.995,73.67l7.19,7.189c1.866-2.32,3.099-5.169,3.436-8.289h-10.17C208.335,72.955,208.182,73.323,207.995,73.67zM204.443,76.579v10.17c3.12-0.336,5.969-1.57,8.289-3.436l-7.19-7.189C205.195,76.31,204.827,76.463,204.443,76.579zM192.684,83.313c2.32,1.866,5.169,3.099,8.289,3.436v-10.17c-0.384-0.116-0.752-0.269-1.1-0.456L192.684,83.313zM205.869,70.836c0-1.745-1.415-3.16-3.161-3.16c-1.745,0-3.16,1.415-3.16,3.16s1.415,3.16,3.16,3.16C204.454,73.996,205.869,72.581,205.869,70.836z"><animateTransform attributeName="transform" type="rotate" from="0" to="360" dur="1s" repeatCount="indefinite"/></path>
</svg>