<svg xmlns="http://www.w3.org/2000/svg" viewBox="0 0 320 98">
<style type="text/css">
.st0{fill:#231F20}
.st1{fill:none;stroke:rgba(255,255,255,.2);stroke-width:3;stroke-linecap:round;stroke-miterlimit:10;stroke-dasharray:20;stroke-dashoffset:-100;animation:move 2s linear infinite}
.st2{fill:#EC2024}
.st3{opacity:.3;fill:#FFFFFF;transform-origin:center;transform-box:fill-box}
@keyframes move{100%{stroke-dashoffset:300}}
</style>
<path class="st0" d="M96.442,45.409c-14.043,0-25.427,11.384-25.427,25.427s11.384,25.427,25.427,25.427c14.043,0,25.427-11.384,25.427-25.427S110.484,45.409,96.442,45.409z M202.708,45.409c-14.043,0-25.427,11.384-25.427,25.427s11.384,25.427,25.427,25.427s25.427-11.384,25.427-25.427S216.751,45.409,202.708,45.409z"/>
<line class="st1" x1="1.5" y1="98.4" x2="318.5" y2="98.4"/>
<path class="st2" d="M121.868,59.538h20.642v25.191h14.129V59.538h20.642V45.409h-55.413V59.538z M71.633,42.963h47.788V29.327H95.821l1.413-2.447h22.188V14.859h-15.248l1.413-2.447h13.835V-0.442H96.693L71.633,42.963z M40.31,66.096L20.209,31.28H0v14.129h12.052v39.32h14.129V69.882l8.572,14.848h11.113l8.572-14.848v14.848h14.129v-39.32H52.253L40.31,66.096z M179.728-0.442v43.405h14.129V32.888h12.106l5.857,10.074h16.315l-25.06-43.405H179.728z M177.282,16.223c0-9.204-7.461-16.665-16.665-16.665h-38.748v43.405h14.129V32.888h19.113l5.857,10.074h16.315l-7.429-12.868C174.331,27.107,177.282,22.01,177.282,16.223z M271.981,60.469c0-8.317-6.742-15.06-15.06-15.06h-12.211h-14.129v30.119v9.201h14.129v-9.201h5.643l5.312,9.201h16.315l-6.755-11.699C269.296,70.334,271.981,65.716,271.981,60.469z M320,63.213V52.748l-45.573-7.339v22.339l31.443,5.923v1.563l-31.443-0.924v10.419H320V67.634l-31.443-5.923v-2.288L320,63.213z"><animateTransform attributeName="transform" type="translate" dur="2s" values="0,0; 0,2; 0,0" repeatCount="indefinite"/></path>
<path class="st3" d="M94.707,65.093v-10.17c-3.12,0.336-5.969,1.57-8.289,3.436l7.19,7.189C93.955,65.362,94.323,65.209,94.707,65.093zM91.154,68.002l-7.19-7.19c-1.866,2.32-3.099,5.169-3.436,8.289h10.17C90.815,68.717,90.968,68.349,91.154,68.002zM106.465,58.359c-2.32-1.866-5.169-3.099-8.289-3.436v10.17c0.384,0.116,0.752,0.269,1.1,0.456L106.465,58.359zM102.184,69.101h10.17c-0.336-3.12-1.57-5.969-3.436-8.289l-7.19,7.189C101.915,68.349,102.068,68.717,102.184,69.101zM90.699,72.571h-10.17c0.336,3.12,1.57,5.969,3.436,8.289l7.19-7.189C90.968,73.323,90.815,72.955,90.699,72.571zM101.729,73.67l7.19,7.189c1.866-2.32,3.099-5.169,3.436-8.289h-10.17C102.068,72.955,101.915,73.323,101.729,73.67zM98.176,76.579v10.17c3.12-0.336,5.969-1.57,8.289-3.436l-7.19-7.189C98.928,76.31,98.56,76.463,98.176,76.579zM86.418,83.313c2.32,1.866,5.169,3.099,8.289,3.436v-10.17c-0.384-0.116-0.752-0.269-1.1-0.456L86.418,83.313zM99.602,70.836c0-1.745-1.415-3.16-3.161-3.16c-1.745,0-3.16,1.415-3.16,3.16s1.415,3.16,3.16,3.16C98.187,73.996,99.602,72.581,99.602,70.836z"><animateTransform attributeName="transform" type="rotate" from="0" to="360" dur="1s" repeatCount="indefinite"/></path>
<path class="st3" d="M200.974,65.093v-10.17c-3.12,0.336-5.969,1.57-8.289,3.436l7.19,7.189C200.221,65.362,200.589,65.209,200.974,65.093zM197.421,68.002l-7.19-7.19c-1.866,2.32-3.099,5.169-3.436,8.289h10.17C197.081,68.717,197.234,68.349,197.421,68.002zM212.732,58.359c-2.32-1.866-5.169-3.099-8.289-3.436v10.17c0.384,0.116,0.752,0.269,1.1,0.456L212.732,58.359zM208.451,69.101h10.17c-0.336-3.12-1.57-5.969-3.436-8.289l-7.19,7.189C208.182,68.349,208.335,68.717,208.451,69.101zM196.966,72.571h-10.17c0.336,3.12,1.57,5.969,3.436,8.289l7.19-7.189C197.234,73.323,197.081,72.955,196.966,72.571zM207.995,73.67l7.19,7.189c1.866-2.32,3.099-5.169,3.436-8.289h-10.17C208.335,72.955,208.182,73.323,207.995,73.67zM204.443,76.579v10.17c3.12-0.336,5.969-1.57,8.289-3.436l-7.19-7.189C205.195,76.31,204.827,76.463,204.443,76.579zM192.684,83.313c2.32,1.866,5.169,3.099,8.289,3.436v-10.17c-0.384-0.116-0.752-0.269-1.1-0.456L192.684,83.313zM205.869,70.836c0-1.745-1.415-3.16-3.161-3.16c-1.745,0-3.16,1.415-3.16,3.16s1.415,3.16,3.16,3.16C204.454,73.996,205.869,72.581,205.869,70.836z"><animateTransform attributeName="transform" type="rotate" from="0" to="360" dur="1s" repeatCount="indefinite"/></path>
</svg>